<?xml version="1.0" encoding="utf-8"?>
<!-- Generator: Adobe Illustrator 25.0.0, SVG Export Plug-In . SVG Version: 6.00 Build 0)  -->
<svg version="1.1" id="Layer_1" xmlns="http://www.w3.org/2000/svg" xmlns:xlink="http://www.w3.org/1999/xlink" x="0px" y="0px"
	 viewBox="0 0 453.5 453.5" style="enable-background:new 0 0 453.5 453.5;" xml:space="preserve">
<style type="text/css">
	.st0{fill:#090D11;}
	.st1{fill:url(#SVGID_1_);}
	.st2{fill:#060C12;}
	.st3{fill:url(#SVGID_2_);stroke:url(#SVGID_3_);stroke-width:5.9481;stroke-miterlimit:10;}
	.st4{fill:#F2EAD8;}
	.st5{fill:#CFA13C;}
	.st6{fill:#C38F2E;}
	.st7{fill:#A87423;}
	.st8{fill:#9D6E29;}
	.st9{fill:url(#SVGID_4_);stroke:#D8B966;stroke-width:1.487;stroke-miterlimit:10;}
</style>
<g>
	<path class="st0" d="M226.8,429.6c-108.3,0-196-88.9-196-198.5c0-109.6,87.8-198.5,196-198.5s196,88.9,196,198.5
		C422.8,340.7,335,429.6,226.8,429.6z M166.8,439.3c-14-4.1-27.5-9.7-40.2-16.5c-5.1-2.7-10.1-5.7-15-8.8c-0.2-0.1-0.3-0.2-0.5-0.3
		c-5.8-3.8-11.5-7.9-16.9-12.2c0,0-0.1-0.1-0.1-0.1c-3.3-2.6-6.5-5.4-9.7-8.2c-3.7-3.4-7.3-6.8-10.8-10.4
		c-37.8-39.1-61-92.6-61-151.6c0-65.1,28.3-123.5,73.1-163.2c4.9-4.3,9.9-8.4,15.2-12.3c4.5-3.3,9.2-6.5,13.9-9.4c0,0,0,0,0,0
		c19.3-12,40.5-21,63.2-26.3c0,0,0,0,0,0c3.5-0.8,7.1-1.6,10.7-2.2c5.1-0.9,10.2-1.7,15.4-2.2c7.4-0.8,14.9-1.2,22.5-1.2
		c118.3,0,214.2,97.1,214.2,216.9c0,43.1-12.4,83.3-33.8,117c-3.2,5-6.6,9.9-10.1,14.6c-0.7,1-1.4,1.9-2.2,2.8
		c-12.7,16.2-27.6,30.5-44.2,42.5c-0.2,0.1-0.3,0.2-0.5,0.3c-2.2,1.6-4.4,3.1-6.7,4.6c-0.2,0.1-0.3,0.2-0.5,0.3
		c-5.4,3.6-11,6.9-16.8,9.9c-12.5,6.6-25.7,12-39.4,16.1H166.8z"/>
	<linearGradient id="SVGID_1_" gradientUnits="userSpaceOnUse" x1="226.7664" y1="25.7308" x2="226.7664" y2="418.7514">
		<stop  offset="0" style="stop-color:#D1A43C"/>
		<stop  offset="0.6572" style="stop-color:#785F2B"/>
		<stop  offset="0.8362" style="stop-color:#403418"/>
	</linearGradient>
	<path class="st1" d="M226.8,32.6c-108.3,0-196,88.9-196,198.5c0,109.7,87.8,198.5,196,198.5s196-88.9,196-198.5
		C422.8,121.4,335,32.6,226.8,32.6z M226.8,407.9c-96.4,0-174.6-79.2-174.6-176.9c0-97.7,78.2-176.9,174.6-176.9
		s174.6,79.2,174.6,176.9C401.4,328.8,323.2,407.9,226.8,407.9z"/>
	<path class="st2" d="M226.8,54.2c-96.4,0-174.6,79.2-174.6,176.9s78.2,176.9,174.6,176.9s174.6-79.2,174.6-176.9
		S323.2,54.2,226.8,54.2z M226.8,387.2c-85.1,0-154.1-69.9-154.1-156.1c0-86.2,69-156.1,154.1-156.1s154.1,69.9,154.1,156.1
		C380.9,317.3,311.9,387.2,226.8,387.2z"/>
	
		<linearGradient id="SVGID_2_" gradientUnits="userSpaceOnUse" x1="634.9851" y1="73.7254" x2="855.2852" y2="200.9474" gradientTransform="matrix(0 1 -1 0 366.798 -518.7123)">
		<stop  offset="0" style="stop-color:#033C44"/>
		<stop  offset="8.778299e-02" style="stop-color:#084951"/>
		<stop  offset="0.3892" style="stop-color:#227D84"/>
		<stop  offset="0.6097" style="stop-color:#38A3A9"/>
		<stop  offset="0.7242" style="stop-color:#42B3B8"/>
	</linearGradient>
	
		<linearGradient id="SVGID_3_" gradientUnits="userSpaceOnUse" x1="592.6804" y1="140.0289" x2="906.9149" y2="140.0289" gradientTransform="matrix(0 1 -1 0 366.798 -518.7123)">
		<stop  offset="0" style="stop-color:#056B69"/>
		<stop  offset="1" style="stop-color:#78A8AA"/>
	</linearGradient>
	<ellipse class="st3" cx="226.8" cy="231.1" rx="156.1" ry="154.1"/>
</g>
<path class="st2" d="M226.8,226.8"/>
<g>
	<path class="st2" d="M31.5,0C86.6,0,141.8,0,197,0c0,120.6,0,241.1,0,361.7c75,0.3,150.1,0.5,225.1,0.8
		c-22.5,30.4-45,60.8-67.5,91.1c-107.5,0-214.9,0-322.4,0c15.2-25.1,30.3-50.3,45.5-75.4c0.3-105.9,0.5-211.8,0.8-317.7
		C62.8,40.3,47.2,20.1,31.5,0z"/>
	<path class="st4" d="M393.8,376.9l-24.3,11c-65.1,0.3-130.2,0.5-195.3,0.8l8.4-11.8H393.8z"/>
	<path class="st4" d="M108.3,378.5c-9.5,16.6-19.1,33.2-28.6,49.8l-20,8.6c11.4-19.3,22.9-38.7,34.3-58.1L108.3,378.5z"/>
	<path class="st4" d="M181.5,15.5l-10.8,10.4c-28.2,0.3-56.5,0.5-84.7,0.8L63.8,16.5v0C103,16.2,142.3,15.8,181.5,15.5z"/>
	<path class="st5" d="M182.6,376.9L182.6,376.9l-8.4,11.8c-1.2-120.9-2.3-241.9-3.5-362.8l10.8-10.4
		C181.9,136,182.3,256.4,182.6,376.9z"/>
	<path class="st6" d="M108.3,378.5L94,378.9c-0.1-107.3-0.3-214.5-0.4-321.8c-9.9-13.5-19.9-27-29.8-40.6L86,26.7
		c7.2,9.8,14.4,19.6,21.6,29.4C107.8,163.6,108.1,271,108.3,378.5z"/>
	<path class="st7" d="M393.8,376.9c-15.8,20.2-31.6,40.4-47.5,60.6l-7.1-10c10.1-13.2,20.1-26.4,30.2-39.6L393.8,376.9z"/>
	<path class="st8" d="M346.4,437.5c-95.6-0.2-191.1-0.4-286.7-0.6l20-8.6h0c86.5-0.3,173.1-0.5,259.6-0.8L346.4,437.5z"/>
	<linearGradient id="SVGID_4_" gradientUnits="userSpaceOnUse" x1="224.6421" y1="131.0802" x2="224.6421" y2="337.7938">
		<stop  offset="0.1442" style="stop-color:#D2AC48"/>
		<stop  offset="0.4862" style="stop-color:#C89E3F"/>
		<stop  offset="0.9486" style="stop-color:#BF8F35"/>
	</linearGradient>
	<path class="st9" d="M369.6,387.6c-10.1,13.2-20.1,26.4-30.2,39.6c-86.5,0.3-173.1,0.5-259.6,0.8h0c9.5-16.6,19.1-33.2,28.6-49.8
		c-0.3-107.5-0.5-214.9-0.8-322.4C100.4,46,93.2,36.2,86,26.4c28.2-0.3,56.5-0.5,84.7-0.8c1.2,120.9,2.3,241.9,3.5,362.8
		C239.3,388.1,304.5,387.8,369.6,387.6z"/>
</g>
</svg>
